<svg id="Group_24" data-name="Group 24" xmlns="http://www.w3.org/2000/svg" xmlns:xlink="http://www.w3.org/1999/xlink" width="21.652" height="25.653" viewBox="0 0 21.652 25.653">
  <defs>
    <filter id="Path_43" x="0" y="0" width="21.652" height="12.827" filterUnits="userSpaceOnUse">
      <feOffset dy="3" input="SourceAlpha"/>
      <feGaussianBlur stdDeviation="3" result="blur"/>
      <feFlood flood-opacity="0.412" result="color"/>
      <feComposite operator="out" in="SourceGraphic" in2="blur"/>
      <feComposite operator="in" in="color"/>
      <feComposite operator="in" in2="SourceGraphic"/>
    </filter>
    <filter id="Path_53" x="0" y="12.826" width="21.652" height="12.826" filterUnits="userSpaceOnUse">
      <feOffset dy="3" input="SourceAlpha"/>
      <feGaussianBlur stdDeviation="3" result="blur-2"/>
      <feFlood flood-opacity="0.412" result="color-2"/>
      <feComposite operator="out" in="SourceGraphic" in2="blur-2"/>
      <feComposite operator="in" in="color-2"/>
      <feComposite operator="in" in2="SourceGraphic"/>
    </filter>
  </defs>
  <g data-type="innerShadowGroup">
    <path id="Path_43-2" data-name="Path 43" d="M71.049,441.155c2.55.781,3.424-2.836,9.186-2.673S92.7,428.439,92.7,428.439s-11.749,10.122-16.806,7.16" transform="translate(-71.049 -428.439)" fill="#fff"/>
    <g transform="matrix(1, 0, 0, 1, 0, 0)" filter="url(#Path_43)">
      <path id="Path_43-3" data-name="Path 43" d="M71.049,441.155c2.55.781,3.424-2.836,9.186-2.673S92.7,428.439,92.7,428.439s-11.749,10.122-16.806,7.16" transform="translate(-71.05 -428.44)" fill="#fff"/>
    </g>
  </g>
  <g data-type="innerShadowGroup">
    <path id="Path_53-2" data-name="Path 53" d="M71.049,428.55c2.55-.781,3.424,2.836,9.186,2.673S92.7,441.266,92.7,441.266s-11.749-10.122-16.806-7.16" transform="translate(-71.049 -415.613)" fill="#fff"/>
    <g transform="matrix(1, 0, 0, 1, 0, 0)" filter="url(#Path_53)">
      <path id="Path_53-3" data-name="Path 53" d="M71.049,428.55c2.55-.781,3.424,2.836,9.186,2.673S92.7,441.266,92.7,441.266s-11.749-10.122-16.806-7.16" transform="translate(-71.05 -415.61)" fill="#fff"/>
    </g>
  </g>
</svg>
